<mxfile host="app.diagrams.net" modified="2020-12-18T09:15:25.018Z" agent="5.0 (Windows)" etag="ww9oNKdp-v8H2a0fgYIv" version="14.0.5" type="github">
  <diagram id="kgpKYQtTHZ0yAKxKKP6v" name="Page-1">
    <mxGraphModel dx="1427" dy="707" grid="1" gridSize="10" guides="1" tooltips="1" connect="1" arrows="1" fold="1" page="1" pageScale="1" pageWidth="850" pageHeight="1100" math="0" shadow="0">
      <root>
        <mxCell id="0" />
        <mxCell id="1" parent="0" />
        <mxCell id="3nuBFxr9cyL0pnOWT2aG-1" value="平台商城" style="shape=umlLifeline;perimeter=lifelinePerimeter;container=1;collapsible=0;recursiveResize=0;rounded=0;shadow=0;strokeWidth=1;" parent="1" vertex="1">
          <mxGeometry x="35" y="80" width="100" height="440" as="geometry" />
        </mxCell>
        <mxCell id="3nuBFxr9cyL0pnOWT2aG-2" value="" style="points=[];perimeter=orthogonalPerimeter;rounded=0;shadow=0;strokeWidth=1;" parent="3nuBFxr9cyL0pnOWT2aG-1" vertex="1">
          <mxGeometry x="45" y="70" width="10" height="370" as="geometry" />
        </mxCell>
        <mxCell id="3nuBFxr9cyL0pnOWT2aG-3" value="消费者下单" style="verticalAlign=bottom;startArrow=oval;endArrow=block;startSize=8;shadow=0;strokeWidth=1;" parent="3nuBFxr9cyL0pnOWT2aG-1" target="3nuBFxr9cyL0pnOWT2aG-2" edge="1">
          <mxGeometry relative="1" as="geometry">
            <mxPoint x="-15" y="70" as="sourcePoint" />
            <mxPoint x="25" y="70" as="targetPoint" />
          </mxGeometry>
        </mxCell>
        <mxCell id="3nuBFxr9cyL0pnOWT2aG-5" value=":Object" style="shape=umlLifeline;perimeter=lifelinePerimeter;container=1;collapsible=0;recursiveResize=0;rounded=0;shadow=0;strokeWidth=1;" parent="1" vertex="1">
          <mxGeometry x="215" y="80" width="100" height="300" as="geometry" />
        </mxCell>
        <mxCell id="3nuBFxr9cyL0pnOWT2aG-6" value="" style="points=[];perimeter=orthogonalPerimeter;rounded=0;shadow=0;strokeWidth=1;" parent="3nuBFxr9cyL0pnOWT2aG-5" vertex="1">
          <mxGeometry x="45" y="80" width="10" height="160" as="geometry" />
        </mxCell>
        <mxCell id="-36NSiWMsxJw1NQKNw6j-1" value="E仓" style="shape=umlLifeline;perimeter=lifelinePerimeter;container=1;collapsible=0;recursiveResize=0;rounded=0;shadow=0;strokeWidth=1;" vertex="1" parent="1">
          <mxGeometry x="215" y="80" width="100" height="300" as="geometry" />
        </mxCell>
        <mxCell id="-36NSiWMsxJw1NQKNw6j-2" value="" style="points=[];perimeter=orthogonalPerimeter;rounded=0;shadow=0;strokeWidth=1;" vertex="1" parent="-36NSiWMsxJw1NQKNw6j-1">
          <mxGeometry x="45" y="80" width="10" height="160" as="geometry" />
        </mxCell>
        <mxCell id="-36NSiWMsxJw1NQKNw6j-3" value="" style="points=[];perimeter=orthogonalPerimeter;rounded=0;shadow=0;strokeWidth=1;" vertex="1" parent="1">
          <mxGeometry x="260" y="150" width="10" height="370" as="geometry" />
        </mxCell>
        <mxCell id="-36NSiWMsxJw1NQKNw6j-5" value="GSS" style="shape=umlLifeline;perimeter=lifelinePerimeter;container=1;collapsible=0;recursiveResize=0;rounded=0;shadow=0;strokeWidth=1;" vertex="1" parent="1">
          <mxGeometry x="395" y="80" width="100" height="440" as="geometry" />
        </mxCell>
        <mxCell id="-36NSiWMsxJw1NQKNw6j-6" value="" style="points=[];perimeter=orthogonalPerimeter;rounded=0;shadow=0;strokeWidth=1;" vertex="1" parent="-36NSiWMsxJw1NQKNw6j-5">
          <mxGeometry x="45" y="80" width="10" height="360" as="geometry" />
        </mxCell>
        <mxCell id="-36NSiWMsxJw1NQKNw6j-16" value="GSS" style="shape=umlLifeline;perimeter=lifelinePerimeter;container=1;collapsible=0;recursiveResize=0;rounded=0;shadow=0;strokeWidth=1;" vertex="1" parent="1">
          <mxGeometry x="395" y="80" width="100" height="440" as="geometry" />
        </mxCell>
        <mxCell id="-36NSiWMsxJw1NQKNw6j-17" value="" style="points=[];perimeter=orthogonalPerimeter;rounded=0;shadow=0;strokeWidth=1;" vertex="1" parent="-36NSiWMsxJw1NQKNw6j-16">
          <mxGeometry x="45" y="80" width="10" height="360" as="geometry" />
        </mxCell>
        <mxCell id="-36NSiWMsxJw1NQKNw6j-18" value="外仓供应系统" style="shape=umlLifeline;perimeter=lifelinePerimeter;container=1;collapsible=0;recursiveResize=0;rounded=0;shadow=0;strokeWidth=1;" vertex="1" parent="1">
          <mxGeometry x="570" y="80" width="100" height="440" as="geometry" />
        </mxCell>
        <mxCell id="-36NSiWMsxJw1NQKNw6j-19" value="" style="points=[];perimeter=orthogonalPerimeter;rounded=0;shadow=0;strokeWidth=1;" vertex="1" parent="-36NSiWMsxJw1NQKNw6j-18">
          <mxGeometry x="45" y="80" width="10" height="360" as="geometry" />
        </mxCell>
        <mxCell id="-36NSiWMsxJw1NQKNw6j-24" value="" style="endArrow=classic;html=1;entryX=0.1;entryY=0.014;entryDx=0;entryDy=0;entryPerimeter=0;" edge="1" parent="1" target="-36NSiWMsxJw1NQKNw6j-3">
          <mxGeometry width="50" height="50" relative="1" as="geometry">
            <mxPoint x="190" y="155" as="sourcePoint" />
            <mxPoint x="500" y="370" as="targetPoint" />
          </mxGeometry>
        </mxCell>
        <mxCell id="-36NSiWMsxJw1NQKNw6j-25" value="&lt;div&gt;推送订单&lt;/div&gt;" style="text;html=1;strokeColor=none;fillColor=none;align=center;verticalAlign=middle;whiteSpace=wrap;rounded=0;" vertex="1" parent="1">
          <mxGeometry x="135" y="150" width="55" height="20" as="geometry" />
        </mxCell>
        <mxCell id="-36NSiWMsxJw1NQKNw6j-26" value="" style="endArrow=classic;html=1;exitX=1.1;exitY=0.014;exitDx=0;exitDy=0;exitPerimeter=0;entryX=0;entryY=0.25;entryDx=0;entryDy=0;" edge="1" parent="1" source="3nuBFxr9cyL0pnOWT2aG-2" target="-36NSiWMsxJw1NQKNw6j-25">
          <mxGeometry width="50" height="50" relative="1" as="geometry">
            <mxPoint x="91" y="155.17999999999995" as="sourcePoint" />
            <mxPoint x="261" y="155.17999999999995" as="targetPoint" />
          </mxGeometry>
        </mxCell>
        <mxCell id="-36NSiWMsxJw1NQKNw6j-27" value="跨境宝" style="shape=umlLifeline;perimeter=lifelinePerimeter;container=1;collapsible=0;recursiveResize=0;rounded=0;shadow=0;strokeWidth=1;" vertex="1" parent="1">
          <mxGeometry x="740" y="80" width="100" height="440" as="geometry" />
        </mxCell>
        <mxCell id="-36NSiWMsxJw1NQKNw6j-28" value="" style="points=[];perimeter=orthogonalPerimeter;rounded=0;shadow=0;strokeWidth=1;" vertex="1" parent="-36NSiWMsxJw1NQKNw6j-27">
          <mxGeometry x="45" y="80" width="10" height="360" as="geometry" />
        </mxCell>
        <mxCell id="-36NSiWMsxJw1NQKNw6j-29" value="" style="endArrow=classic;html=1;exitX=1;exitY=0.035;exitDx=0;exitDy=0;exitPerimeter=0;" edge="1" parent="1" source="-36NSiWMsxJw1NQKNw6j-30" target="-36NSiWMsxJw1NQKNw6j-27">
          <mxGeometry width="50" height="50" relative="1" as="geometry">
            <mxPoint x="450" y="410" as="sourcePoint" />
            <mxPoint x="500" y="360" as="targetPoint" />
          </mxGeometry>
        </mxCell>
        <mxCell id="-36NSiWMsxJw1NQKNw6j-32" value="" style="endArrow=classic;html=1;exitX=1.2;exitY=0.095;exitDx=0;exitDy=0;exitPerimeter=0;" edge="1" parent="1" source="-36NSiWMsxJw1NQKNw6j-3" target="-36NSiWMsxJw1NQKNw6j-1">
          <mxGeometry width="50" height="50" relative="1" as="geometry">
            <mxPoint x="450" y="410" as="sourcePoint" />
            <mxPoint x="340" y="210" as="targetPoint" />
            <Array as="points">
              <mxPoint x="320" y="185" />
              <mxPoint x="320" y="200" />
            </Array>
          </mxGeometry>
        </mxCell>
        <mxCell id="-36NSiWMsxJw1NQKNw6j-33" value="&lt;div&gt;不是自营订单生成B2C订单&lt;/div&gt;" style="text;html=1;strokeColor=none;fillColor=none;align=center;verticalAlign=middle;whiteSpace=wrap;rounded=0;" vertex="1" parent="1">
          <mxGeometry x="315" y="180" width="75" height="20" as="geometry" />
        </mxCell>
        <mxCell id="-36NSiWMsxJw1NQKNw6j-35" value="" style="endArrow=classic;html=1;exitX=1;exitY=0.25;exitDx=0;exitDy=0;" edge="1" parent="1" source="-36NSiWMsxJw1NQKNw6j-36" target="-36NSiWMsxJw1NQKNw6j-16">
          <mxGeometry width="50" height="50" relative="1" as="geometry">
            <mxPoint x="450" y="410" as="sourcePoint" />
            <mxPoint x="500" y="360" as="targetPoint" />
          </mxGeometry>
        </mxCell>
        <mxCell id="-36NSiWMsxJw1NQKNw6j-37" value="" style="endArrow=classic;html=1;exitX=1;exitY=0.25;exitDx=0;exitDy=0;" edge="1" parent="1" source="-36NSiWMsxJw1NQKNw6j-38" target="-36NSiWMsxJw1NQKNw6j-28">
          <mxGeometry width="50" height="50" relative="1" as="geometry">
            <mxPoint x="450" y="410" as="sourcePoint" />
            <mxPoint x="500" y="360" as="targetPoint" />
          </mxGeometry>
        </mxCell>
        <mxCell id="-36NSiWMsxJw1NQKNw6j-39" value="" style="endArrow=classic;html=1;" edge="1" parent="1" source="-36NSiWMsxJw1NQKNw6j-40" target="-36NSiWMsxJw1NQKNw6j-18">
          <mxGeometry width="50" height="50" relative="1" as="geometry">
            <mxPoint x="450" y="410" as="sourcePoint" />
            <mxPoint x="500" y="360" as="targetPoint" />
            <Array as="points">
              <mxPoint x="570" y="350" />
            </Array>
          </mxGeometry>
        </mxCell>
        <mxCell id="-36NSiWMsxJw1NQKNw6j-41" value="" style="endArrow=none;dashed=1;html=1;dashPattern=1 3;strokeWidth=2;entryX=1.1;entryY=0.254;entryDx=0;entryDy=0;entryPerimeter=0;" edge="1" parent="1" source="-36NSiWMsxJw1NQKNw6j-1" target="3nuBFxr9cyL0pnOWT2aG-2">
          <mxGeometry width="50" height="50" relative="1" as="geometry">
            <mxPoint x="450" y="410" as="sourcePoint" />
            <mxPoint x="500" y="360" as="targetPoint" />
          </mxGeometry>
        </mxCell>
        <mxCell id="-36NSiWMsxJw1NQKNw6j-42" value="&lt;div&gt;接口校验不通过生成异常订单&lt;/div&gt;" style="text;html=1;strokeColor=none;fillColor=none;align=center;verticalAlign=middle;whiteSpace=wrap;rounded=0;" vertex="1" parent="1">
          <mxGeometry x="135" y="220" width="95" height="20" as="geometry" />
        </mxCell>
        <mxCell id="-36NSiWMsxJw1NQKNw6j-44" value="" style="endArrow=none;dashed=1;html=1;" edge="1" parent="1" source="-36NSiWMsxJw1NQKNw6j-45" target="-36NSiWMsxJw1NQKNw6j-18">
          <mxGeometry width="50" height="50" relative="1" as="geometry">
            <mxPoint x="450" y="410" as="sourcePoint" />
            <mxPoint x="500" y="360" as="targetPoint" />
          </mxGeometry>
        </mxCell>
        <mxCell id="-36NSiWMsxJw1NQKNw6j-46" value="" style="endArrow=classic;html=1;" edge="1" parent="1">
          <mxGeometry width="50" height="50" relative="1" as="geometry">
            <mxPoint x="450" y="390" as="sourcePoint" />
            <mxPoint x="515" y="390" as="targetPoint" />
          </mxGeometry>
        </mxCell>
        <mxCell id="-36NSiWMsxJw1NQKNw6j-48" value="推送海关" style="text;html=1;strokeColor=none;fillColor=none;align=center;verticalAlign=middle;whiteSpace=wrap;rounded=0;" vertex="1" parent="1">
          <mxGeometry x="455" y="370" width="65" height="20" as="geometry" />
        </mxCell>
        <mxCell id="-36NSiWMsxJw1NQKNw6j-45" value="海关不放行生成异常订单" style="text;html=1;strokeColor=none;fillColor=none;align=center;verticalAlign=middle;whiteSpace=wrap;rounded=0;" vertex="1" parent="1">
          <mxGeometry x="272.5" y="420" width="160" height="20" as="geometry" />
        </mxCell>
        <mxCell id="-36NSiWMsxJw1NQKNw6j-49" value="" style="endArrow=none;dashed=1;html=1;entryX=0;entryY=0.5;entryDx=0;entryDy=0;" edge="1" parent="1" source="3nuBFxr9cyL0pnOWT2aG-1" target="-36NSiWMsxJw1NQKNw6j-45">
          <mxGeometry width="50" height="50" relative="1" as="geometry">
            <mxPoint x="84.5" y="397.96000000000004" as="sourcePoint" />
            <mxPoint x="612" y="397.96000000000004" as="targetPoint" />
          </mxGeometry>
        </mxCell>
        <mxCell id="-36NSiWMsxJw1NQKNw6j-38" value="&lt;div&gt;是保税仓订单推跨境宝&lt;/div&gt;" style="text;html=1;strokeColor=none;fillColor=none;align=center;verticalAlign=middle;whiteSpace=wrap;rounded=0;" vertex="1" parent="1">
          <mxGeometry x="510" y="270" width="70" height="20" as="geometry" />
        </mxCell>
        <mxCell id="-36NSiWMsxJw1NQKNw6j-50" value="" style="endArrow=classic;html=1;exitX=1.5;exitY=0.357;exitDx=0;exitDy=0;exitPerimeter=0;" edge="1" parent="1" source="-36NSiWMsxJw1NQKNw6j-3" target="-36NSiWMsxJw1NQKNw6j-38">
          <mxGeometry width="50" height="50" relative="1" as="geometry">
            <mxPoint x="275" y="282.09000000000003" as="sourcePoint" />
            <mxPoint x="785" y="282.09000000000003" as="targetPoint" />
          </mxGeometry>
        </mxCell>
        <mxCell id="-36NSiWMsxJw1NQKNw6j-40" value="&lt;div&gt;不是保税仓订单推送外部&lt;/div&gt;" style="text;html=1;strokeColor=none;fillColor=none;align=center;verticalAlign=middle;whiteSpace=wrap;rounded=0;" vertex="1" parent="1">
          <mxGeometry x="470" y="340" width="80" height="20" as="geometry" />
        </mxCell>
        <mxCell id="-36NSiWMsxJw1NQKNw6j-52" value="" style="endArrow=classic;html=1;entryX=0;entryY=0.5;entryDx=0;entryDy=0;" edge="1" parent="1" source="-36NSiWMsxJw1NQKNw6j-1" target="-36NSiWMsxJw1NQKNw6j-40">
          <mxGeometry width="50" height="50" relative="1" as="geometry">
            <mxPoint x="264.5" y="350" as="sourcePoint" />
            <mxPoint x="619.5" y="350" as="targetPoint" />
            <Array as="points" />
          </mxGeometry>
        </mxCell>
        <mxCell id="-36NSiWMsxJw1NQKNw6j-30" value="&lt;div&gt;自营订单推送跨境宝&lt;/div&gt;&lt;div&gt;&lt;br&gt;&lt;/div&gt;" style="text;html=1;strokeColor=none;fillColor=none;align=center;verticalAlign=middle;whiteSpace=wrap;rounded=0;" vertex="1" parent="1">
          <mxGeometry x="490" y="160" width="110" height="20" as="geometry" />
        </mxCell>
        <mxCell id="-36NSiWMsxJw1NQKNw6j-53" value="" style="endArrow=classic;html=1;exitX=1;exitY=0.035;exitDx=0;exitDy=0;exitPerimeter=0;" edge="1" parent="1" source="-36NSiWMsxJw1NQKNw6j-3" target="-36NSiWMsxJw1NQKNw6j-30">
          <mxGeometry width="50" height="50" relative="1" as="geometry">
            <mxPoint x="270" y="162.95000000000005" as="sourcePoint" />
            <mxPoint x="789.5" y="162.95000000000005" as="targetPoint" />
          </mxGeometry>
        </mxCell>
        <mxCell id="-36NSiWMsxJw1NQKNw6j-36" value="&lt;div&gt;发送扣减库存指令&lt;/div&gt;" style="text;html=1;strokeColor=none;fillColor=none;align=center;verticalAlign=middle;whiteSpace=wrap;rounded=0;" vertex="1" parent="1">
          <mxGeometry x="315" y="230" width="97.5" height="20" as="geometry" />
        </mxCell>
        <mxCell id="-36NSiWMsxJw1NQKNw6j-54" value="" style="endArrow=classic;html=1;exitX=1.3;exitY=0.251;exitDx=0;exitDy=0;exitPerimeter=0;" edge="1" parent="1" source="-36NSiWMsxJw1NQKNw6j-3" target="-36NSiWMsxJw1NQKNw6j-36">
          <mxGeometry width="50" height="50" relative="1" as="geometry">
            <mxPoint x="273" y="242.87" as="sourcePoint" />
            <mxPoint x="444.5" y="242.87" as="targetPoint" />
          </mxGeometry>
        </mxCell>
      </root>
    </mxGraphModel>
  </diagram>
</mxfile>
